<svg xmlns="http://www.w3.org/2000/svg" version="1.1" xmlns:xlink="http://www.w3.org/1999/xlink" xmlns:svgjs="http://svgjs.dev/svgjs" viewBox="0 0 10.588210282647951 2.5789647574854495"><g transform="matrix(1,0,0,1,2.290842365705228,0.5409357077302257)"><rect width="10.588210282647951" height="10.588210282647951" x="-2.290842365705228" y="-4.545558470311477" fill="#ffffff"></rect><g><path d=" M 0.18 1.1452499999999999 Q 0.0615 1.0574999999999999 0.0525 0.8939999999999999 L 0.366 0.8939999999999999 Q 0.3705 0.9494999999999999 0.399 0.9749999999999999 Q 0.4275 1.0005 0.47250000000000003 1.0005 Q 0.513 1.0005 0.53925 0.98025 Q 0.5655 0.96 0.5655 0.9239999999999999 Q 0.5655 0.8775 0.522 0.8519999999999999 Q 0.47850000000000004 0.8264999999999999 0.381 0.7949999999999999 Q 0.2775 0.7605 0.21375 0.7282499999999998 Q 0.15 0.696 0.10275000000000001 0.6337499999999999 Q 0.0555 0.5714999999999999 0.0555 0.47099999999999986 Q 0.0555 0.3689999999999999 0.1065 0.2962499999999999 Q 0.1575 0.22349999999999992 0.2475 0.18599999999999994 Q 0.3375 0.14849999999999985 0.4515 0.14849999999999985 Q 0.636 0.14849999999999985 0.74625 0.2347499999999999 Q 0.8565 0.32099999999999995 0.864 0.47699999999999987 L 0.5445 0.47699999999999987 Q 0.543 0.42899999999999994 0.51525 0.4049999999999999 Q 0.4875 0.3809999999999999 0.444 0.3809999999999999 Q 0.41100000000000003 0.3809999999999999 0.39 0.40049999999999986 Q 0.369 0.41999999999999993 0.369 0.45599999999999985 Q 0.369 0.4859999999999999 0.39225 0.5077499999999999 Q 0.41550000000000004 0.5294999999999999 0.45 0.5452499999999999 Q 0.4845 0.5609999999999999 0.552 0.5849999999999999 Q 0.6525 0.6194999999999999 0.71775 0.6532499999999999 Q 0.783 0.6869999999999999 0.83025 0.7477499999999999 Q 0.8775000000000001 0.8084999999999999 0.8775000000000001 0.9015 Q 0.8775000000000001 0.9959999999999999 0.83025 1.071 Q 0.783 1.146 0.69375 1.1895 Q 0.6045 1.2329999999999999 0.483 1.2329999999999999 Q 0.2985 1.2329999999999999 0.18 1.1452499999999999 M 1.53899267578125 1.2225 L 1.30649267578125 0.8775 L 1.30649267578125 1.2225 L 1.01249267578125 1.2225 L 1.01249267578125 0.11249999999999982 L 1.30649267578125 0.11249999999999982 L 1.30649267578125 0.7109999999999999 L 1.53899267578125 0.3809999999999999 L 1.89149267578125 0.3809999999999999 L 1.55999267578125 0.8039999999999999 L 1.8974926757812498 1.2225 L 1.53899267578125 1.2225 M 2.00470166015625 0.26024999999999987 Q 1.95745166015625 0.2174999999999998 1.95745166015625 0.1529999999999998 Q 1.95745166015625 0.08699999999999997 2.00470166015625 0.04349999999999987 Q 2.05195166015625 0 2.12995166015625 0 Q 2.20645166015625 0 2.25370166015625 0.04349999999999987 Q 2.30095166015625 0.08699999999999997 2.30095166015625 0.1529999999999998 Q 2.30095166015625 0.2174999999999998 2.25370166015625 0.26024999999999987 Q 2.20645166015625 0.30299999999999994 2.12995166015625 0.30299999999999994 Q 2.05195166015625 0.30299999999999994 2.00470166015625 0.26024999999999987 M 2.27545166015625 0.3809999999999999 L 2.27545166015625 1.2225 L 1.98145166015625 1.2225 L 1.98145166015625 0.3809999999999999 L 2.27545166015625 0.3809999999999999 M 2.7359267578125 0.11249999999999982 L 2.7359267578125 1.2225 L 2.4419267578125 1.2225 L 2.4419267578125 0.11249999999999982 L 2.7359267578125 0.11249999999999982 M 3.19640185546875 0.11249999999999982 L 3.19640185546875 1.2225 L 2.90240185546875 1.2225 L 2.90240185546875 0.11249999999999982 L 3.19640185546875 0.11249999999999982 M 3.458876953125 1.1452499999999999 Q 3.340376953125 1.0574999999999999 3.331376953125 0.8939999999999999 L 3.644876953125 0.8939999999999999 Q 3.6493769531249995 0.9494999999999999 3.6778769531249997 0.9749999999999999 Q 3.706376953125 1.0005 3.751376953125 1.0005 Q 3.7918769531249996 1.0005 3.8181269531249997 0.98025 Q 3.844376953125 0.96 3.844376953125 0.9239999999999999 Q 3.844376953125 0.8775 3.800876953125 0.8519999999999999 Q 3.7573769531249996 0.8264999999999999 3.659876953125 0.7949999999999999 Q 3.5563769531249996 0.7605 3.492626953125 0.7282499999999998 Q 3.4288769531249996 0.696 3.3816269531249996 0.6337499999999999 Q 3.3343769531249996 0.5714999999999999 3.3343769531249996 0.47099999999999986 Q 3.3343769531249996 0.3689999999999999 3.3853769531249998 0.2962499999999999 Q 3.436376953125 0.22349999999999992 3.5263769531249998 0.18599999999999994 Q 3.6163769531249996 0.14849999999999985 3.730376953125 0.14849999999999985 Q 3.914876953125 0.14849999999999985 4.025126953125 0.2347499999999999 Q 4.135376953125 0.32099999999999995 4.142876953125 0.47699999999999987 L 3.823376953125 0.47699999999999987 Q 3.821876953125 0.42899999999999994 3.7941269531249997 0.4049999999999999 Q 3.7663769531249995 0.3809999999999999 3.7228769531249997 0.3809999999999999 Q 3.6898769531249997 0.3809999999999999 3.668876953125 0.40049999999999986 Q 3.6478769531249995 0.41999999999999993 3.6478769531249995 0.45599999999999985 Q 3.6478769531249995 0.4859999999999999 3.6711269531249995 0.5077499999999999 Q 3.694376953125 0.5294999999999999 3.728876953125 0.5452499999999999 Q 3.763376953125 0.5609999999999999 3.8308769531249998 0.5849999999999999 Q 3.9313769531249996 0.6194999999999999 3.996626953125 0.6532499999999999 Q 4.061876953125 0.6869999999999999 4.109126953125 0.7477499999999999 Q 4.156376953125 0.8084999999999999 4.156376953125 0.9015 Q 4.156376953125 0.9959999999999999 4.109126953125 1.071 Q 4.061876953125 1.146 3.972626953125 1.1895 Q 3.8833769531249995 1.2329999999999999 3.761876953125 1.2329999999999999 Q 3.5773769531249995 1.2329999999999999 3.458876953125 1.1452499999999999 M 4.68286962890625 0.4049999999999999 Q 4.74586962890625 0.37049999999999994 4.831369628906249 0.37049999999999994 Q 4.93186962890625 0.37049999999999994 5.01361962890625 0.42299999999999993 Q 5.09536962890625 0.4754999999999999 5.14261962890625 0.573 Q 5.18986962890625 0.6704999999999999 5.18986962890625 0.8009999999999999 Q 5.18986962890625 0.9315 5.14261962890625 1.02975 Q 5.09536962890625 1.128 5.01361962890625 1.1804999999999999 Q 4.93186962890625 1.2329999999999999 4.831369628906249 1.2329999999999999 Q 4.74586962890625 1.2329999999999999 4.68361962890625 1.1985 Q 4.621369628906249 1.164 4.58536962890625 1.1055 L 4.58536962890625 1.6244999999999998 L 4.291369628906249 1.6244999999999998 L 4.291369628906249 0.3809999999999999 L 4.58536962890625 0.3809999999999999 L 4.58536962890625 0.4979999999999999 Q 4.619869628906249 0.4394999999999999 4.68286962890625 0.4049999999999999 M 4.84711962890625 0.67275 Q 4.80286962890625 0.6269999999999999 4.738369628906249 0.6269999999999999 Q 4.67386962890625 0.6269999999999999 4.62961962890625 0.6734999999999999 Q 4.58536962890625 0.7199999999999999 4.58536962890625 0.8009999999999999 Q 4.58536962890625 0.8835 4.62961962890625 0.9299999999999999 Q 4.67386962890625 0.9764999999999999 4.738369628906249 0.9764999999999999 Q 4.80286962890625 0.9764999999999999 4.84711962890625 0.9292499999999999 Q 4.89136962890625 0.8819999999999999 4.89136962890625 0.8009999999999999 Q 4.89136962890625 0.7184999999999999 4.84711962890625 0.67275 M 5.309108642578124 0.573 Q 5.356358642578124 0.4754999999999999 5.438108642578125 0.42299999999999993 Q 5.519858642578124 0.37049999999999994 5.6203586425781245 0.37049999999999994 Q 5.707358642578124 0.37049999999999994 5.770358642578125 0.4049999999999999 Q 5.8333586425781245 0.4394999999999999 5.867858642578125 0.4979999999999999 L 5.867858642578125 0.3809999999999999 L 6.1618586425781245 0.3809999999999999 L 6.1618586425781245 1.2225 L 5.867858642578125 1.2225 L 5.867858642578125 1.1055 Q 5.8333586425781245 1.164 5.769608642578125 1.1985 Q 5.705858642578125 1.2329999999999999 5.6203586425781245 1.2329999999999999 Q 5.519858642578124 1.2329999999999999 5.438108642578125 1.1804999999999999 Q 5.356358642578124 1.128 5.309108642578124 1.02975 Q 5.261858642578124 0.9315 5.261858642578124 0.8009999999999999 Q 5.261858642578124 0.6704999999999999 5.309108642578124 0.573 M 5.823608642578124 0.6734999999999999 Q 5.779358642578124 0.6269999999999999 5.7148586425781245 0.6269999999999999 Q 5.648858642578125 0.6269999999999999 5.605358642578125 0.67275 Q 5.561858642578125 0.7184999999999999 5.561858642578125 0.8009999999999999 Q 5.561858642578125 0.8819999999999999 5.605358642578125 0.9292499999999999 Q 5.648858642578125 0.9764999999999999 5.7148586425781245 0.9764999999999999 Q 5.779358642578124 0.9764999999999999 5.823608642578124 0.9299999999999999 Q 5.867858642578125 0.8835 5.867858642578125 0.8009999999999999 Q 5.867858642578125 0.7199999999999999 5.823608642578124 0.6734999999999999 M 6.74234765625 0.41549999999999987 Q 6.81284765625 0.37349999999999994 6.893847656249999 0.37349999999999994 L 6.893847656249999 0.6869999999999999 L 6.81134765625 0.6869999999999999 Q 6.71534765625 0.6869999999999999 6.66884765625 0.7244999999999999 Q 6.62234765625 0.7619999999999999 6.62234765625 0.855 L 6.62234765625 1.2225 L 6.328347656249999 1.2225 L 6.328347656249999 0.3809999999999999 L 6.62234765625 0.3809999999999999 L 6.62234765625 0.5294999999999999 Q 6.67184765625 0.4574999999999999 6.74234765625 0.41549999999999987 M 7.5238798828124995 1.2225 L 7.2913798828125 0.8775 L 7.2913798828125 1.2225 L 6.997379882812499 1.2225 L 6.997379882812499 0.11249999999999982 L 7.2913798828125 0.11249999999999982 L 7.2913798828125 0.7109999999999999 L 7.5238798828124995 0.3809999999999999 L 7.8763798828125 0.3809999999999999 L 7.544879882812499 0.8039999999999999 L 7.8823798828125 1.2225 L 7.5238798828124995 1.2225" fill="#030303" fill-rule="nonzero"></path></g><g></g><g clip-path="url(#SvgjsClipPath1001)"><path d=" M -1.8773133159500044 -0.12251489202814783 L -0.3999999999999999 -0.12251489202814783 L -0.3999999999999999 1.3450148920281477 L -1.8773133159500044 1.3450148920281477 Z" fill="#0e0904" transform="matrix(1,0,0,1,0,0)" fill-rule="nonzero" mask="url(#maskedMgText-3d7fa8b8-0d51-4755-9f40-be704d59ab5c)"></path></g></g><defs><clipPath id="SvgjsClipPath1001"><path d=" M -1.8773133159500044 -0.12740665797500217 h 1.4773133159500043 v 1.4773133159500043 h -1.4773133159500043 Z"></path></clipPath><mask id="maskedMgText-3d7fa8b8-0d51-4755-9f40-be704d59ab5c"><path d=" M -0.3999999999999999 0.61125 C -0.3999999999999999 1.0191988446183924 -0.7307078133566097 1.3499066579750023 -1.1386566579750022 1.3499066579750023 C -1.5466055025933947 1.3499066579750023 -1.8773133159500044 1.0191988446183924 -1.8773133159500044 0.61125 C -1.8773133159500044 0.20330115538160753 -1.5466055025933947 -0.12740665797500217 -1.1386566579750022 -0.12740665797500217 C -0.7307078133566097 -0.12740665797500217 -0.3999999999999999 0.20330115538160753 -0.3999999999999999 0.61125 Z" fill="#ffffff" transform="matrix(1,0,0,1,0,0)" fill-rule="nonzero"></path><path d=" M -1.0001492549984332 0.4068017149685269 C -1.0022526324164525 0.39207807304239206 -1.0074059070905996 0.37819578208346494 -1.0156090790208747 0.3651548420917454 C -1.02381225095115 0.3521139021000259 -1.0343291380412463 0.3408608329136228 -1.0471597402911639 0.3313956345325362 C -1.0599903425410815 0.32193043615144945 -1.0745036467254143 0.314463446317481 -1.0906996528441626 0.3089946650306309 C -1.106895658962911 0.30352588374378076 -1.1238278471779664 0.3007914931003558 -1.141496217489328 0.3007914931003558 C -1.1574818858662745 0.3007914931003558 -1.1724158655342114 0.30247419503477124 -1.1862981564931385 0.305839598903602 C -1.2001804474520656 0.3092050027724328 -1.2122748676056765 0.31435827744658007 -1.2225814169539708 0.32129942292604363 C -1.2328879663022654 0.3282405684055072 -1.2410911382325405 0.33717992243208916 -1.2471909327447963 0.3481174850057893 C -1.2532907272570522 0.3590550475794895 -1.25634062451318 0.372095987571209 -1.25634062451318 0.38724030498094775 C -1.25634062451318 0.4061707017431212 -1.2522390385480426 0.4212098502819589 -1.2440358666177675 0.43235775059746107 C -1.2358326946874922 0.44350565091296323 -1.225315807597396 0.452655342681347 -1.2124852053474784 0.45980682590261257 C -1.1996546030975608 0.46695830912387803 -1.1854568055259307 0.47263742815253007 -1.1698918126325881 0.47684418298856857 C -1.1543268197392456 0.48105093782460706 -1.1391825023295068 0.4856783681442495 -1.124458860403372 0.4907264739474958 L -0.9509302234167822 0.5487796906848276 C -0.9269517208513626 0.5571932003569047 -0.9044455824785564 0.5687617761560106 -0.8834118082983637 0.5834854180821456 C -0.8623780341181712 0.5982090600082804 -0.8441838194523044 0.6160877680614443 -0.8288291643007637 0.637121542241637 C -0.8134745091492231 0.6581553164218297 -0.8013800889956122 0.6823441567290511 -0.7925459038399313 0.7096880631633017 C -0.7837117186842504 0.7370319695975522 -0.7792946261064099 0.7677412799006336 -0.7792946261064099 0.8018159940725458 C -0.7792946261064099 0.8480902972689697 -0.7878133046493879 0.890368183371157 -0.804850661735344 0.9286496523791077 C -0.8218880188213001 0.9669311213870584 -0.8457613525158187 0.999743809108159 -0.8764706628189002 1.0270877155424094 C -0.9071799731219815 1.0544316219766598 -0.9439890779373187 1.0756757338986545 -0.9868979772649118 1.0908200513083932 C -1.029806876592505 1.105964368718132 -1.0773432062397403 1.1135365274230014 -1.1295069662066182 1.1135365274230014 C -1.1661057332801534 1.1135365274230014 -1.2007062918065705 1.109434941457864 -1.2333086417858692 1.1012317695275886 C -1.2659109917651679 1.0930285975973135 -1.2956737822301405 1.0811445151855046 -1.3225970131807872 1.065579522292162 C -1.3495202441314338 1.0500145293988195 -1.3730780712132495 1.031399639249349 -1.3932704944262346 1.0097348518437506 C -1.4134629176392195 0.9880700644381519 -1.4292382482743642 0.9635657175182275 -1.4405964863316683 0.9362218110839771 L -1.5055908485484637 0.9362218110839771 L -1.5055908485484637 0.7462868302368371 L -1.2771640609515709 0.7462868302368371 L -1.2771640609515709 0.7854096502119954 C -1.2771640609515709 0.8043400469741688 -1.274114163695443 0.8217980795437287 -1.268014369183187 0.8377837479206752 C -1.2619145746709313 0.8537694162976216 -1.2527648829025475 0.8676517072565488 -1.2405652938780356 0.8794306207974567 C -1.228365704853524 0.8912095343383646 -1.2130110497019833 0.9003592261067485 -1.1945013284234136 0.9068796961026082 C -1.175991607144844 0.9134001660984679 -1.1543268197392456 0.9166604010963978 -1.1295069662066182 0.9166604010963978 C -1.0916461726822715 0.9166604010963978 -1.0628299020554075 0.9079313848116178 -1.0430581543260262 0.8904733522420579 C -1.0232864065966452 0.8730153196724979 -1.0134005327319546 0.8487213104943754 -1.0134005327319546 0.8175913247076902 C -1.0134005327319546 0.8016056563307438 -1.0168711054716864 0.7882492097263214 -1.02381225095115 0.7775219848944231 C -1.0307533964306135 0.7667947600625249 -1.0396927504571956 0.757750237165042 -1.0506303130308956 0.7503884162019745 C -1.0615678756045959 0.7430265952389071 -1.0737674646291075 0.7368216318557503 -1.0872290801044309 0.731773526052504 C -1.1006906955797544 0.7267254202492578 -1.1139419733132756 0.7220979899296154 -1.1269829133049951 0.7178912350935769 L -1.2714849419229188 0.6711962564135491 C -1.2988288483571695 0.662782746741472 -1.3252262349533113 0.6510038332005641 -1.3506771017113444 0.6358595157908253 C -1.3761279684693775 0.6207151983810866 -1.3986341068421837 0.6017848016189131 -1.4181955168297629 0.5790683255043051 C -1.4377569268173422 0.556351849389697 -1.4533219197106848 0.5297441250517533 -1.4648904955097908 0.49924515249047385 C -1.4764590713088968 0.46874617992919443 -1.4822433592084496 0.43393528366097556 -1.4822433592084496 0.3948124636858171 C -1.4822433592084496 0.34937951145660084 -1.4738298495363726 0.30888949615972994 -1.4570028301922184 0.2733424177952043 C -1.4401758108480642 0.23779533943067865 -1.4166179837662485 0.2078222112239041 -1.386329348946771 0.1834230331748805 C -1.3560407141272934 0.15902385512585693 -1.320072960279164 0.1405141338472874 -1.2784260874023825 0.1278938693391718 C -1.236779214525601 0.1152736048310562 -1.1911359245545827 0.10896347257699845 -1.141496217489328 0.10896347257699845 C -1.1023733975141696 0.10896347257699845 -1.0661953059242382 0.11348573402573991 -1.0329619427195338 0.12253025692322272 C -0.9997285795148294 0.13157477982070553 -0.9699657890498566 0.14366919997431638 -0.9436735713246158 0.15881351738405514 C -0.917381353599375 0.1739578347937938 -0.8950855529683707 0.19131069849245275 -0.876786169431603 0.21087210848003202 C -0.8584867858948354 0.23043351846761118 -0.8444993260650072 0.2507311105514972 -0.8348237899421186 0.2717648847316898 L -0.7717224674015406 0.2717648847316898 L -0.7717224674015406 0.4623308788042356 L -1.0001492549984332 0.4623308788042356 L -1.0001492549984332 0.4068017149685269" fill="NA" transform="matrix(1,0,0,1,0,0)" fill-rule="nonzero"></path></mask></defs></svg>